PathFileType	4	(X/Y/Z)	C:/Users/opensim2020/Desktop/walking_exp_matlab/subject01_walking09_straight_02.trc	
DataRate	CameraRate	NumFrames	NumMarkers	Units	OrigDataRate	OrigDataStartFrame	OrigNumFrames	
100.00	100.00	4	43	mm	100.00	2072	362	
Frame#	Time	LFHD			RFHD			LBHD			RBHD			C7			T10			CLAV			STRN			RBAK			LSHO			LUPA			LELB			LFRM			LWRA			LWRB			LFIN			RSHO			RUPA			RELB			RFRM			RWRA			RWRB			RFIN			LASI			RASI			LPSI			RPSI			LTHI			LKNE			LTIB			LANK			LHEE			LTOE			RTHI			RKNE			RTIB			RANK			RHEE			RTOE			*39			*40			*41			*42			
		X1	Y1	Z1	X2	Y2	Z2	X3	Y3	Z3	X4	Y4	Z4	X5	Y5	Z5	X6	Y6	Z6	X7	Y7	Z7	X8	Y8	Z8	X9	Y9	Z9	X10	Y10	Z10	X11	Y11	Z11	X12	Y12	Z12	X13	Y13	Z13	X14	Y14	Z14	X15	Y15	Z15	X16	Y16	Z16	X17	Y17	Z17	X18	Y18	Z18	X19	Y19	Z19	X20	Y20	Z20	X21	Y21	Z21	X22	Y22	Z22	X23	Y23	Z23	X24	Y24	Z24	X25	Y25	Z25	X26	Y26	Z26	X27	Y27	Z27	X28	Y28	Z28	X29	Y29	Z29	X30	Y30	Z30	X31	Y31	Z31	X32	Y32	Z32	X33	Y33	Z33	X34	Y34	Z34	X35	Y35	Z35	X36	Y36	Z36	X37	Y37	Z37	X38	Y38	Z38	X39	Y39	Z39	X40	Y40	Z40	X41	Y41	Z41	X42	Y42	Z42	X43	Y43	Z43	

182	1.810	1506.90210	72.92134	1657.94177	1395.94043	48.88762	1661.80225	1488.35437	192.25491	1626.21948	1369.66431	169.91119	1629.58301	1447.70020	242.67058	1426.89148	1432.59375	272.36917	1130.27405	1446.15405	99.90850	1357.35889	1451.25110	55.94804	1204.14221	1368.91309	295.30399	1228.72681	1607.41248	159.95763	1387.31726	1691.23547	174.37708	1202.87366	1694.47278	166.95750	1048.56250	1716.03809	85.01009	965.87616	1701.51563	-39.39013	904.52423	1716.65759	8.47589	871.59015	1733.10071	-63.79185	832.00275	1294.63831	164.96304	1387.37158	1195.35193	227.23653	1186.62256	1195.24524	228.82051	1062.33594	1166.47913	208.97330	943.91797	1187.91589	137.99492	822.11102	1147.80347	180.21094	825.60669	1149.26477	147.56073	747.14642	1546.44458	93.10216	921.59454	1328.89746	77.58164	934.46063	1479.23474	274.58612	939.76312	1333.91406	262.50665	945.74164	1589.05017	176.14638	590.82428	1576.47192	213.78506	459.68173	1582.19763	350.62674	326.72037	1533.06628	487.09543	152.47060	1478.38770	535.53259	156.49983	1525.57654	395.71906	34.44777	1271.08142	76.43358	604.68793	1304.80310	39.97370	452.99341	1297.76331	59.35907	277.37350	1349.39966	52.70571	73.46157	1399.05029	100.63440	34.67601	1355.38086	-87.99527	38.54660	1417.55212	58.91799	1696.49011	-3101.86841	1973.23572	1023.43402	-3140.62769	2012.50415	1021.97455			 
183	1.820	1504.94604	65.50925	1658.70410	1394.04590	41.21611	1662.35315	1486.26392	184.80965	1626.94775	1367.24292	161.95946	1630.11292	1446.03088	234.98785	1427.40686	1431.20679	264.41211	1130.85815	1444.61401	92.10429	1358.25354	1449.73254	47.97459	1204.98828	1367.01160	287.22626	1229.27722	1605.66113	152.31610	1388.07898	1689.59705	166.81433	1203.71021	1692.16235	160.71245	1049.29138	1714.08740	80.04252	965.39923	1699.75903	-43.62720	902.16742	1715.05750	4.76642	870.03040	1731.46497	-66.98725	829.39008	1293.19897	156.95346	1388.20459	1193.69714	218.81819	1187.34558	1193.86267	220.03951	1063.13245	1165.26892	200.09227	944.82465	1186.92993	129.41896	822.80829	1146.65405	171.35988	826.46851	1148.19971	138.70348	747.73822	1544.64807	84.82008	922.49286	1327.35901	69.27911	935.13989	1477.88831	266.08731	940.73230	1332.55884	254.06740	946.78357	1588.77625	163.38039	590.48010	1576.96399	199.59407	459.40176	1582.43225	339.39767	329.92673	1533.49988	479.20120	158.11829	1478.13367	526.38354	164.36386	1525.42749	394.78183	35.01201	1270.29919	70.67662	604.65582	1304.21399	34.78356	452.54691	1297.97742	55.62551	277.27084	1349.73718	51.85662	73.41499	1399.15613	100.53153	34.81238	1356.03943	-88.81079	37.84452	1415.59583	51.40511	1697.04980	-3101.89551	1973.14575	1023.53949	-3140.74463	2012.52808	1021.98462			 
184	1.830	1503.02966	58.14274	1659.41968	1392.25513	33.55697	1662.86218	1484.18787	177.40244	1627.57642	1365.54541	154.48415	1630.45801	1444.51355	227.37836	1427.89392	1429.62671	256.45996	1131.36096	1443.09180	84.49335	1358.93860	1448.24731	40.09445	1205.76880	1364.95801	279.15143	1229.77283	1603.99097	144.76987	1388.72681	1688.16956	159.32430	1204.50098	1689.90247	154.52768	1049.93799	1712.18799	75.22838	964.85248	1698.10986	-47.56987	899.70459	1713.37085	1.28330	868.38409	1729.87280	-69.96639	826.68396	1291.70813	149.07666	1388.99426	1191.95007	210.41396	1188.08936	1192.39746	211.27722	1063.83704	1163.89502	191.09625	945.49347	1185.74170	120.15961	823.61261	1145.48877	162.13422	827.25958	1147.20300	129.66618	748.37671	1542.89600	76.62706	923.33856	1325.84326	61.04362	935.80194	1476.43176	257.86267	941.52020	1331.07227	245.73799	947.65631	1588.57666	150.24168	590.10107	1577.71277	184.82396	458.95300	1582.56763	327.67526	333.18094	1534.09460	470.76352	164.01222	1478.10828	516.64948	172.34419	1525.58215	393.38138	36.18985	1269.56006	65.38128	604.30505	1303.74695	29.52026	452.08188	1298.23010	52.21572	277.32858	1350.00171	51.05176	73.34864	1399.22302	100.29977	34.92574	1356.45715	-89.66550	37.00962	1413.57715	43.56875	1697.70325	-3101.89722	1973.11450	1023.48016	-3140.59033	2012.48389	1021.94250			 
185	1.840	1501.24817	50.84467	1660.00720	1390.39734	26.07265	1663.21497	1482.20056	170.05440	1628.08936	1363.53198	146.87363	1630.65637	1442.79102	219.83553	1428.13281	1427.95667	248.56816	1131.79272	1441.63855	76.85787	1359.60388	1446.82837	32.24282	1206.47815	1362.85522	271.11575	1230.23877	1602.36133	137.25430	1389.24011	1686.57141	152.03650	1205.12195	1687.73096	148.48784	1050.39612	1710.26892	70.56588	964.10370	1696.53442	-51.40734	897.16327	1711.86609	-1.98968	866.66919	1728.29626	-72.72845	823.70410	1290.12183	141.06813	1389.56873	1190.10803	201.92355	1188.76526	1190.79053	202.57303	1064.47339	1162.48962	182.09045	946.17371	1184.72913	111.19743	824.23846	1144.12500	152.78149	827.89093	1146.26306	120.38065	748.95349	1541.22473	68.73130	924.09729	1324.30396	53.04088	936.02673	1474.88000	249.98862	942.08142	1329.49500	237.59459	948.39935	1588.45081	137.06219	589.69214	1578.10559	170.12398	458.43228	1582.66980	315.32663	336.34210	1534.53931	461.67767	169.75591	1478.27051	506.53735	180.27132	1524.69617	391.22137	37.45071	1268.95142	60.60173	603.90039	1303.12891	24.93667	451.46164	1298.71973	49.66711	276.85678	1350.36011	50.30614	73.18102	1399.40723	100.07732	35.19685	1356.87378	-90.38399	36.44309	1411.60510	36.14980	1698.04150	-3101.89575	1973.22070	1023.49091	-3140.65112	2012.51477	1022.04602			 
